<svg version="1.2" xmlns="http://www.w3.org/2000/svg" viewBox="0 0 1000 1000" width="1000" height="1000">
	<title>4002783-ai</title>
	<style>
		.s0 { fill: #f5f5f5 } 
		.s1 { fill: #407bff } 
		.s2 { opacity: .3;fill: #ffffff } 
		.s3 { fill: #ffffff } 
		.s4 { fill: #263238 } 
		.s5 { opacity: .6;fill: #ffffff } 
		.s6 { opacity: .4;fill: #ffffff } 
		.s7 { opacity: .2;fill: #000000 } 
		.s8 { opacity: .5;fill: #ffffff } 
		.s9 { opacity: .4;fill: #000000 } 
		.s10 { opacity: .2;fill: #ffffff } 
		.s11 { opacity: .6;fill: #407bff } 
		.s12 { fill: #000000 } 
		.s13 { opacity: .9;fill: #ffffff } 
		.s14 { fill: #ebb376 } 
		.s15 { fill: none;stroke: #263238;stroke-miterlimit:10 } 
		.s16 { fill: #e4897b } 
	</style>
	<g id="Shadow">
		<path id="&lt;Path&gt; 359 " class="s0" d="m887.8 832.5c0 12.5-173.6 22.6-387.8 22.6-214.2 0-387.8-10.1-387.8-22.6 0-12.5 173.6-22.7 387.8-22.7 214.2 0 387.8 10.2 387.8 22.7z"/>
	</g>
	<g id="Trash bin">
		<g id="&lt;Group&gt;">
			<g id="&lt;Group&gt;">
				<path id="&lt;Path&gt;" class="s1" d="m842.9 788.4c2-3.4-0.9-8.5-4.8-8.6 1.7-4.8 0-10.7-4.1-13.9-0.5-0.4-1.1-0.8-1.7-0.8-0.7 0-1.3 0.5-1.9 0.9q-5.6 4-11.1 8c-0.9 0.6-1.8 1.2-2.3 2.2-2.2 4.4 6 10 2.6 13.7-1 1-2.5 1.2-3.7 2-2.7 1.7-3 5.3-4.2 8.2-1.3 2.8-5.6 5.1-7.2 2.4 1.2-2.7-2.5-5.1-5.5-5.5-3-0.3-6.1-0.5-7.8-3.3-4.2 3.7-13.7-6.6-13.5-10.8-3.5 0.3-5.9 3.5-6.7 6.8-0.7 3.4-0.3 6.9-0.3 10.4-0.1 6.8-2.3 13.4-2.2 20.2 0.1 5.2 2.1 11.1 7 13.2 2.3 1 4.9 1 7.4 1q27.5-0.2 54.9-0.4c1.3 0 2.7 0 3.8-0.6 2.5-1.3 3-4.6 3.3-7.3q1.4-17.9 2.9-35.8-2.5-1-4.9-2z"/>
				<path id="&lt;Path&gt;" class="s2" d="m842.9 788.4c2-3.4-0.9-8.5-4.8-8.6 1.7-4.8 0-10.7-4.1-13.9-0.5-0.4-1.1-0.8-1.7-0.8-0.7 0-1.3 0.5-1.9 0.9q-5.6 4-11.1 8c-0.9 0.6-1.8 1.2-2.3 2.2-2.2 4.4 6 10 2.6 13.7-1 1-2.5 1.2-3.7 2-2.7 1.7-3 5.3-4.2 8.2-1.3 2.8-5.6 5.1-7.2 2.4 1.2-2.7-2.5-5.1-5.5-5.5-3-0.3-6.1-0.5-7.8-3.3-4.2 3.7-13.7-6.6-13.5-10.8-3.5 0.3-5.9 3.5-6.7 6.8-0.7 3.4-0.3 6.9-0.3 10.4-0.1 6.8-2.3 13.4-2.2 20.2 0.1 5.2 2.1 11.1 7 13.2 2.3 1 4.9 1 7.4 1q27.5-0.2 54.9-0.4c1.3 0 2.7 0 3.8-0.6 2.5-1.3 3-4.6 3.3-7.3q1.4-17.9 2.9-35.8-2.5-1-4.9-2z"/>
			</g>
			<g id="&lt;Group&gt;">
				<g id="&lt;Group&gt;">
					<path id="&lt;Compound Path&gt;" fill-rule="evenodd" class="s1" d="m855.6 730.4l-0.7 8.6-0.5 6.1-1.2 16-0.8 9.2-1 12.2-0.4 5.3-0.1 1.5-0.5 6.2-0.7 8.4-0.4 5.3-0.5 5.3-0.5 6.1-0.3 4.7-0.5 5.2-0.1 2.3h-78.2l-0.1-2.3-0.5-5.2-0.3-4.7-0.5-6.1-0.5-5.3-0.4-5.3-0.7-8.4-0.5-6.2-0.1-1.5-0.4-5.3-1-12.2-0.8-9.2-1.3-16-0.5-6.1-0.7-8.6zm-4.3 4h-1.8l1.7 1.6zm-7.4 0h-1.9l-7.8 7.9 8.7 8.7 7.7-7.6 0.1-2.1zm5.1 28.3l-6-6.1-8.7 8.7 8.7 8.8 5.6-5.6zm-81 5.8l5.6 5.6 8.7-8.7-8.7-8.7-6.1 6zm63.4-23.5l-8.7 8.8 8.7 8.7 8.7-8.7zm0-5.7l5-5h-10zm-11.5 17.3l-8.8 8.7 8.8 8.7 8.7-8.7zm-11.6 29l8.8-8.7-8.8-8.8-8.7 8.8zm-11.6-5.9l-8.7 8.7 8.7 8.7 8.8-8.7zm14.3 8.7l8.8 8.7 8.7-8.7-8.7-8.7zm5.9-34.7l-8.7-8.7-8.8 8.7 8.8 8.7zm-20.3 2.9l-8.8 8.7 8.8 8.7 8.7-8.7zm-2.8-2.8l-8.8-8.8-8.7 8.8 8.7 8.7zm-17.4 23.1l8.7 8.8 8.7-8.8-8.7-8.7zm8.7 14.4l-8.7 8.7 8.7 8.8 8.7-8.8zm2.9 20.3l8.7 8.8 8.7-8.8-8.7-8.7zm20.3-2.8l8.7-8.8-8.7-8.7-8.7 8.7zm2.8 2.9l8.7 8.7 8.7-8.7-8.7-8.8zm11.6 11.6l5.6 5.7h6.2l5.7-5.7-8.8-8.7zm8.8-14.4l8.7-8.8-8.7-8.7-8.8 8.7zm0-23.1l8.8-8.7-8.8-8.7-8.7 8.7zm-10.7-51.3h-1.8l-7.8 7.9 8.7 8.7 8.7-8.7zm-7.5 0h-9.9l5 5zm-15.7 0h-1.8l-7.8 7.8 8.7 8.7 8.7-8.7zm-17.4 0l4.9 5 5-5zm-7.5 0l-6.8 6.8 0.2 2.1 7.6 7.6 8.7-8.7-7.8-7.8zm-7.4 0l0.1 1.6 1.6-1.6zm1.9 23l3.6-3.6-4.2-4.3zm1.7 21.4l1.9-1.9-2.2-2.3 0.3 4.2zm1.2 14.8l3.5 3.6 8.8-8.8-8.8-8.7-4.3 4.3zm0.5 6.6l0.2-0.2-0.2-0.2v0.4zm3 20.1l8.8-8.8-8.8-8.7-2.5 2.6 1.1 13.4zm2.8 8.5l-2.8-2.9-0.9 0.9 0.2 2zm5.6 0h6.2l5.6-5.7-8.7-8.7-8.7 8.7zm17.5 0l-2.9-2.8-2.8 2.8zm11.8 0l5.6-5.6-8.7-8.8-8.7 8.8 5.6 5.6zm11.4 0l-2.9-2.8-2.8 2.8zm21.1-2l-0.8-0.8-2.9 2.8h3.5zm1.8-21.4l-2.6-2.5-8.7 8.7 8.7 8.7 1.5-1.5zm0.5-5.6l-0.3 0.2 0.2 0.2 0.1-0.4zm1.2-15.7l-4.3-4.4-8.7 8.8 8.7 8.7 3.6-3.5zm0.7-9.4l-2.2 2.2 1.9 1.9zm2-25.1l-4.3 4.3 3.7 3.6 0.6-7.9z"/>
				</g>
				<g id="&lt;Group&gt;" style="opacity: .6">
					<path id="&lt;Compound Path&gt;" fill-rule="evenodd" class="s3" d="m855.6 730.4l-0.7 8.6-0.5 6.1-1.2 16-0.8 9.2-1 12.2-0.4 5.3-0.1 1.5-0.5 6.2-0.7 8.4-0.4 5.3-0.5 5.3-0.5 6.1-0.3 4.7-0.5 5.2-0.1 2.3h-78.2l-0.1-2.3-0.5-5.2-0.3-4.7-0.5-6.1-0.5-5.3-0.4-5.3-0.7-8.4-0.5-6.2-0.1-1.5-0.4-5.3-1-12.2-0.8-9.2-1.3-16-0.5-6.1-0.7-8.6zm-4.3 4h-1.8l1.7 1.6zm-7.4 0h-1.9l-7.8 7.9 8.7 8.7 7.7-7.6 0.1-2.1zm5.1 28.3l-6-6.1-8.7 8.7 8.7 8.8 5.6-5.6zm-81 5.8l5.6 5.6 8.7-8.7-8.7-8.7-6.1 6zm63.4-23.5l-8.7 8.8 8.7 8.7 8.7-8.7zm0-5.7l5-5h-10zm-11.5 17.3l-8.8 8.7 8.8 8.7 8.7-8.7zm-11.6 29l8.8-8.7-8.8-8.8-8.7 8.8zm-11.6-5.9l-8.7 8.7 8.7 8.7 8.8-8.7zm14.3 8.7l8.8 8.7 8.7-8.7-8.7-8.7zm5.9-34.7l-8.7-8.7-8.8 8.7 8.8 8.7zm-20.3 2.9l-8.8 8.7 8.8 8.7 8.7-8.7zm-2.8-2.8l-8.8-8.8-8.7 8.8 8.7 8.7zm-17.4 23.1l8.7 8.8 8.7-8.8-8.7-8.7zm8.7 14.4l-8.7 8.7 8.7 8.8 8.7-8.8zm2.9 20.3l8.7 8.8 8.7-8.8-8.7-8.7zm20.3-2.8l8.7-8.8-8.7-8.7-8.7 8.7zm2.8 2.9l8.7 8.7 8.7-8.7-8.7-8.8zm11.6 11.6l5.6 5.7h6.2l5.7-5.7-8.8-8.7zm8.8-14.4l8.7-8.8-8.7-8.7-8.8 8.7zm0-23.1l8.8-8.7-8.8-8.7-8.7 8.7zm-10.7-51.3h-1.8l-7.8 7.9 8.7 8.7 8.7-8.7zm-7.5 0h-9.9l5 5zm-15.7 0h-1.8l-7.8 7.8 8.7 8.7 8.7-8.7zm-17.4 0l4.9 5 5-5zm-7.5 0l-6.8 6.8 0.2 2.1 7.6 7.6 8.7-8.7-7.8-7.8zm-7.4 0l0.1 1.6 1.6-1.6zm1.9 23l3.6-3.6-4.2-4.3zm1.7 21.4l1.9-1.9-2.2-2.3 0.3 4.2zm1.2 14.8l3.5 3.6 8.8-8.8-8.8-8.7-4.3 4.3zm0.5 6.6l0.2-0.2-0.2-0.2v0.4zm3 20.1l8.8-8.8-8.8-8.7-2.5 2.6 1.1 13.4zm2.8 8.5l-2.8-2.9-0.9 0.9 0.2 2zm5.6 0h6.2l5.6-5.7-8.7-8.7-8.7 8.7zm17.5 0l-2.9-2.8-2.8 2.8zm11.8 0l5.6-5.6-8.7-8.8-8.7 8.8 5.6 5.6zm11.4 0l-2.9-2.8-2.8 2.8zm21.1-2l-0.8-0.8-2.9 2.8h3.5zm1.8-21.4l-2.6-2.5-8.7 8.7 8.7 8.7 1.5-1.5zm0.5-5.6l-0.3 0.2 0.2 0.2 0.1-0.4zm1.2-15.7l-4.3-4.4-8.7 8.8 8.7 8.7 3.6-3.5zm0.7-9.4l-2.2 2.2 1.9 1.9zm2-25.1l-4.3 4.3 3.7 3.6 0.6-7.9z"/>
				</g>
			</g>
			<path id="&lt;Path&gt;" class="s1" d="m758.8 738h99c1.8 0 3.3-1.5 3.3-3.3v-4.6c0-1.8-1.5-3.3-3.3-3.3h-99c-1.8 0-3.3 1.5-3.3 3.3v4.6c0 1.8 1.5 3.3 3.3 3.3z"/>
			<path id="&lt;Path&gt;" class="s1" d="m850.2 838h-83.8c-1.8 0-3.3-1.5-3.3-3.3v-4.6c0-1.8 1.5-3.3 3.3-3.3h83.8c1.8 0 3.3 1.5 3.3 3.3v4.6c0 1.8-1.5 3.3-3.3 3.3z"/>
		</g>
	</g>
	<g id="Table">
		<g id="&lt;Group&gt;">
			<g id="&lt;Group&gt;">
				<path id="&lt;Path&gt;" class="s4" d="m407.1 432.3h25.7l-6.8 73.6 40.6 6.1v5.1h-85.6v-5.1l17.5-6.1z"/>
				<path id="&lt;Path&gt;" class="s4" d="m506.9 479c0.4 5-3.2 9-8.1 9h-155.6c-4.9 0-9.3-4-9.7-9l-9.3-99.6q-0.1-1.5 0.2-2.9c0.9-3.5 4-6 7.9-6h155.6c4.9 0 9.3 4 9.7 8.9z"/>
				<path id="&lt;Path&gt;" class="s1" d="m343.2 483c-2.3 0-4.5-2-4.7-4.4l-9.3-99.6q0-0.7 0.1-1.2c0.3-1.4 1.5-2.3 3-2.3h155.6c2.3 0 4.5 2 4.7 4.4l9.3 99.6c0.1 1-0.2 1.9-0.8 2.5-0.4 0.5-1.1 1-2.3 1z"/>
				<path id="&lt;Path&gt;" class="s5" d="m343.2 483c-2.3 0-4.5-2-4.7-4.4l-9.3-99.6q0-0.7 0.1-1.2c0.3-1.4 1.5-2.3 3-2.3h155.6c2.3 0 4.5 2 4.7 4.4l9.3 99.6c0.1 1-0.2 1.9-0.8 2.5-0.4 0.5-1.1 1-2.3 1z"/>
			</g>
			<g id="&lt;Group&gt;">
				<g id="&lt;Group&gt;">
					<path id="&lt;Path&gt;" class="s4" d="m312.7 838h-12.3l-22-306.5h16.3z"/>
					<path id="&lt;Path&gt;" class="s6" d="m312.7 838h-12.3l-20.9-291.3-1.1-14.7h16.3l0.9 14.7z"/>
					<path id="&lt;Path&gt;" class="s7" d="m295.6 546h-16.1l-1.1-14h16.3z"/>
				</g>
				<g id="&lt;Group&gt;">
					<path id="&lt;Path&gt;" class="s4" d="m602.6 838h-12.2l-2-306.5h16.2z"/>
					<path id="&lt;Path&gt;" class="s8" d="m604.6 532l-0.3 49.4-1.7 256.6h-12.2l-1.7-256.6-0.3-49.4z"/>
					<path id="&lt;Path&gt;" class="s7" d="m604.6 532l-0.3 50h-15.6l-0.3-50z"/>
				</g>
				<g id="&lt;Group&gt;">
					<path id="&lt;Path&gt;" class="s4" d="m732.7 838h-12.3l-22-306.5h16.3z"/>
					<path id="&lt;Path&gt;" class="s8" d="m732.7 838h-12.3l-20.9-291.3-1.1-14.7h16.3l0.9 14.7z"/>
					<path id="&lt;Path&gt;" class="s7" d="m715.6 546h-16.1l-1.1-14h16.3z"/>
				</g>
				<g id="&lt;Group&gt;">
					<path id="&lt;Path&gt;" class="s4" d="m172.5 838h-12.2l18-306.5h16.2z"/>
					<path id="&lt;Path&gt;" class="s8" d="m194.5 532l-1 14.7-21 291.3h-12.2l17.1-291.3 0.9-14.7z"/>
					<path id="&lt;Path&gt;" class="s7" d="m178.3 532h16.2l-1 14h-16.1z"/>
				</g>
				<g id="&lt;Group&gt;">
					<path id="&lt;Path&gt;" class="s1" d="m723.2 539.1h-553.5c-2.4 0-4.3-1.9-4.3-4.3v-11h562.2v11c0 2.4-2 4.3-4.4 4.3z"/>
					<path id="&lt;Path&gt;" class="s5" d="m723.2 539.1h-553.5c-2.4 0-4.3-1.9-4.3-4.3v-11h562.2v11c0 2.4-2 4.3-4.4 4.3z"/>
				</g>
				<path id="&lt;Path&gt;" class="s7" d="m727.6 531.5h-562.2v-7.7h562.2z"/>
				<g id="&lt;Group&gt;">
					<path id="&lt;Path&gt;" class="s1" d="m735.2 525.8h-577.4c-2.4 0-4.3-1.9-4.3-4.3 0-2.4 1.9-4.4 4.3-4.4h577.4c2.3 0 4.3 2 4.3 4.4 0 2.4-2 4.3-4.3 4.3z"/>
					<path id="&lt;Path&gt;" class="s5" d="m735.2 525.8h-577.4c-2.4 0-4.3-1.9-4.3-4.3 0-2.4 1.9-4.4 4.3-4.4h577.4c2.3 0 4.3 2 4.3 4.4 0 2.4-2 4.3-4.3 4.3z"/>
				</g>
			</g>
			<g id="&lt;Group&gt;">
				<path id="&lt;Path&gt;" class="s4" d="m432.6 517.1l1.9-7.4h81.1l37.4 3.7 1.4 3.7z"/>
				<path id="&lt;Path&gt;" class="s9" d="m515.6 509.7v7.4h-83l1.9-7.4z"/>
			</g>
			<g id="&lt;Group&gt;">
				<path id="&lt;Path&gt;" class="s4" d="m235.1 432.3h25.7l-26.8 73.6 40.6 6.1v5.1h-85.6v-5.1l17.5-6.1z"/>
				<path id="&lt;Path&gt;" class="s4" d="m310.3 378.3c-0.8-5-5.5-9-10.5-9h-4-131.5-4c-4 0-6.8 2.5-7.4 6.1q-0.2 1.4 0.1 2.9l17.7 100.6c0.8 5 5.5 9 10.5 9h4 131.5 4c4.9 0 8.2-4 7.3-9z"/>
				<path id="&lt;Path&gt;" class="s10" d="m328 478.9c0.9 5-2.4 9-7.3 9h-135.5c-5 0-9.7-4-10.5-9l-17.7-100.6q-0.3-1.5-0.1-2.9c0.6-3.6 3.5-6.1 7.4-6.1h135.5c5 0 9.7 4 10.5 9z"/>
				<path id="&lt;Path&gt;" class="s1" d="m184.7 482.9c-2.3 0-4.7-2-5.1-4.4l-17.7-100.6q-0.1-0.7 0-1.3c0.2-1.4 1.3-2.2 2.8-2.2h135.6c2.3 0 4.7 2 5.1 4.4l17.7 100.6c0.2 1 0 1.9-0.6 2.5-0.3 0.5-1 1-2.2 1z"/>
				<path id="&lt;Path&gt;" class="s11" d="m184.7 482.9c-2.3 0-4.7-2-5.1-4.4l-17.7-100.6q-0.1-0.7 0-1.3c0.2-1.4 1.3-2.2 2.8-2.2h135.6c2.3 0 4.7 2 5.1 4.4l17.7 100.6c0.2 1 0 1.9-0.6 2.5-0.3 0.5-1 1-2.2 1z"/>
			</g>
			<g id="&lt;Group&gt;">
				<path id="&lt;Path&gt;" class="s4" d="m571.1 432.3h25.7l-26.8 73.6 40.6 6.1v5.1h-85.6v-5.1l17.5-6.1z"/>
				<path id="&lt;Path&gt;" class="s4" d="m661.2 379.4c-0.2-4.9-4.4-8.9-9.3-8.9h-4-131.6-4c-3.9 0-7.1 2.5-8.2 6q-0.4 1.4-0.3 2.9l4.1 99.6c0.2 4.9 4.3 8.9 9.3 8.9h4 131.5 4c4.9 0 8.8-4 8.6-8.9z"/>
				<path id="&lt;Path&gt;" class="s6" d="m665.3 479c0.2 4.9-3.7 8.9-8.6 8.9h-135.5c-5 0-9.1-4-9.3-8.9l-4.1-99.6q-0.1-1.5 0.3-2.9c1.1-3.5 4.3-6 8.2-6h135.6c4.9 0 9.1 4 9.3 8.9z"/>
				<path id="&lt;Path&gt;" class="s1" d="m521.4 482.9c-2.3 0-4.4-2-4.5-4.3l-4.1-99.6q0-0.7 0.1-1.3c0.4-1.3 1.6-2.2 3.2-2.2h135.5c2.4 0 4.5 2 4.6 4.4l4.1 99.6c0 1-0.3 1.9-0.9 2.5-0.5 0.4-1.2 0.9-2.4 0.9z"/>
				<path id="&lt;Path&gt;" class="s11" d="m521.4 482.9c-2.3 0-4.4-2-4.5-4.3l-4.1-99.6q0-0.7 0.1-1.3c0.4-1.3 1.6-2.2 3.2-2.2h135.5c2.4 0 4.5 2 4.6 4.4l4.1 99.6c0 1-0.3 1.9-0.9 2.5-0.5 0.4-1.2 0.9-2.4 0.9z"/>
			</g>
			<path id="&lt;Path&gt;" class="s9" d="m521.4 482.9c-2.3 0-4.4-2-4.5-4.3l-4.1-99.6q0-0.7 0.1-1.3c0.4-1.3 1.6-2.2 3.2-2.2h135.5c2.4 0 4.5 2 4.6 4.4l4.1 99.6c0 1-0.3 1.9-0.9 2.5-0.5 0.4-1.2 0.9-2.4 0.9z"/>
			<g id="&lt;Group&gt;">
				<path id="&lt;Path&gt;" class="s3" d="m644.9 386.1h-99.5l-0.1-1.9h99.5z"/>
				<path id="&lt;Path&gt;" class="s3" d="m645.1 391.8h-88.5l-0.1-1.9h88.6z"/>
				<path id="&lt;Path&gt;" class="s3" d="m645.4 397.5h-56l-0.1-1.9h56z"/>
				<path id="&lt;Path&gt;" class="s3" d="m645.7 403.2h-72.7l-0.1-1.9h72.7z"/>
				<path id="&lt;Path&gt;" class="s3" d="m645.9 408.8h-48.2l-0.1-1.8h48.2z"/>
				<g id="&lt;Group&gt;">
					<path id="&lt;Path&gt;" class="s3" d="m646.7 426.2h-99.6v-1.9h99.5z"/>
					<path id="&lt;Path&gt;" class="s3" d="m646.9 431.9h-88.5l-0.1-1.9h88.5z"/>
					<path id="&lt;Path&gt;" class="s3" d="m647.2 437.5h-56l-0.1-1.8h56z"/>
					<path id="&lt;Path&gt;" class="s3" d="m647.4 443.2h-72.7v-1.8h72.6z"/>
					<path id="&lt;Path&gt;" class="s3" d="m647.7 448.9h-48.2l-0.1-1.8h48.2z"/>
				</g>
			</g>
			<g id="&lt;Group&gt;">
				<g id="&lt;Group&gt;">
					<path id="&lt;Path&gt;" class="s1" d="m430.3 446.5h-86.8l-5.1-56.8h86.8z"/>
					<path id="&lt;Path&gt;" class="s1" d="m430.3 446.5h-86.8l-5.1-56.8h86.8z"/>
				</g>
				<path id="&lt;Path&gt;" class="s4" d="m426.9 443.7h-80.5l-3.9-43.3h80.5z"/>
				<g id="&lt;Group&gt;">
					<path id="&lt;Path&gt;" class="s3" d="m409.3 408.7h-59.5l-0.2-1.8h59.6z"/>
					<path id="&lt;Path&gt;" class="s3" d="m378.9 414.4h-28.6l-0.2-1.8h28.6z"/>
					<path id="&lt;Path&gt;" class="s3" d="m386.8 420.1h-36l-0.1-1.8h35.9z"/>
					<path id="&lt;Path&gt;" class="s3" d="m364 425.8h-12.7l-0.1-1.8h12.6z"/>
					<path id="&lt;Path&gt;" class="s3" d="m360.1 431.5h-8.3l-0.1-1.8h8.2z"/>
				</g>
			</g>
			<g id="&lt;Group&gt;">
				<g id="&lt;Group&gt;">
					<path id="&lt;Path&gt;" class="s1" d="m487.6 474.9h-86.8l-5.1-56.8h86.8z"/>
					<path id="&lt;Path&gt;" class="s1" d="m487.6 474.9h-86.8l-5.1-56.8h86.8z"/>
				</g>
				<path id="&lt;Path&gt;" class="s4" d="m484.2 472.1h-80.5l-3.9-43.3h80.5z"/>
				<g id="&lt;Group&gt;">
					<path id="&lt;Path&gt;" class="s3" d="m466.7 437.1h-59.5l-0.2-1.8h59.5z"/>
					<path id="&lt;Path&gt;" class="s3" d="m436.2 442.8h-28.5l-0.2-1.8h28.6z"/>
					<path id="&lt;Path&gt;" class="s3" d="m444.2 448.5h-36l-0.2-1.8h36z"/>
					<path id="&lt;Path&gt;" class="s3" d="m421.4 454.2h-12.7l-0.2-1.8h12.7z"/>
					<path id="&lt;Path&gt;" class="s3" d="m417.4 459.9h-8.2l-0.2-1.8h8.2z"/>
				</g>
			</g>
			<g id="&lt;Group&gt;">
				<path id="&lt;Path&gt;" class="s5" d="m318.7 472.1h-135.3l-15.8-88.3h135.3z"/>
				<path id="&lt;Path&gt;" class="s5" d="m220.7 468.6h-35.2l-13-72.6h35.2z"/>
				<path id="&lt;Path&gt;" class="s5" d="m223.9 466.6h91.3l-13-72.6h-91.4z"/>
				<g id="&lt;Group&gt;" style="opacity: .4">
					<path id="&lt;Path&gt;" class="s12" d="m204.1 403.4h-25.5l-0.3-1.9h25.5z"/>
					<path id="&lt;Path&gt;" class="s12" d="m194.2 408.9h-14.6l-0.3-1.9h14.5z"/>
					<path id="&lt;Path&gt;" class="s12" d="m200.6 414.4h-20l-0.4-1.9h20z"/>
					<path id="&lt;Path&gt;" class="s12" d="m194.2 419.9h-12.6l-0.4-1.9h12.7z"/>
					<path id="&lt;Path&gt;" class="s12" d="m190.8 425.4h-8.3l-0.3-1.9h8.2z"/>
					<path id="&lt;Path&gt;" class="s12" d="m209.1 430.9h-25.6l-0.3-1.9h25.5z"/>
					<path id="&lt;Path&gt;" class="s12" d="m199.1 436.3h-14.6l-0.3-1.8h14.5z"/>
					<path id="&lt;Path&gt;" class="s12" d="m205.5 441.8h-20l-0.3-1.8h19.9z"/>
					<path id="&lt;Path&gt;" class="s12" d="m199.2 447.3h-12.7l-0.3-1.8h12.6z"/>
					<path id="&lt;Path&gt;" class="s12" d="m195.7 452.8h-8.2l-0.4-1.8h8.2z"/>
					<path id="&lt;Path&gt;" class="s12" d="m201.1 458.3h-12.6l-0.4-1.8h12.7z"/>
					<path id="&lt;Path&gt;" class="s12" d="m197.6 463.8h-8.2l-0.3-1.8h8.2z"/>
				</g>
				<g id="&lt;Group&gt;" style="opacity: .4">
					<path id="&lt;Path&gt;" class="s12" d="m284.1 403.4h-65.5l-0.3-1.9h65.5z"/>
					<path id="&lt;Path&gt;" class="s12" d="m274.2 408.9h-54.6l-0.3-1.9h54.5z"/>
					<path id="&lt;Path&gt;" class="s12" d="m280.6 414.4h-60l-0.4-1.9h60z"/>
					<path id="&lt;Path&gt;" class="s12" d="m274.2 419.9h-52.6l-0.4-1.9h52.7z"/>
					<path id="&lt;Path&gt;" class="s12" d="m270.8 425.4h-48.3l-0.3-1.9h48.2z"/>
					<path id="&lt;Path&gt;" class="s12" d="m289.1 430.9h-65.6l-0.3-1.9h65.5z"/>
					<path id="&lt;Path&gt;" class="s12" d="m279.1 436.3h-54.6l-0.3-1.8h54.5z"/>
					<path id="&lt;Path&gt;" class="s12" d="m285.5 441.8h-60l-0.3-1.8h59.9z"/>
					<path id="&lt;Path&gt;" class="s12" d="m279.2 447.3h-52.7l-0.3-1.8h52.6z"/>
					<path id="&lt;Path&gt;" class="s12" d="m275.7 452.8h-48.2l-0.4-1.8h48.2z"/>
					<path id="&lt;Path&gt;" class="s12" d="m281.1 458.3h-52.6l-0.4-1.8h52.7z"/>
					<path id="&lt;Path&gt;" class="s12" d="m277.6 463.8h-48.2l-0.3-1.8h48.2z"/>
				</g>
			</g>
		</g>
	</g>
	<g id="Bubble">
		<g id="&lt;Group&gt;">
			<path id="&lt;Path&gt;" class="s1" d="m571.6 311.9h60.1c3.4 0 6.1-2.7 6.1-6.1v-60.1c0-3.3-2.7-6.1-6.1-6.1h-60.1c-3.3 0-6.1 2.8-6.1 6.1v60.1c0 3.4 2.8 6.1 6.1 6.1z"/>
			<path id="&lt;Path&gt;" class="s1" d="m610 305.5c0 0-3.7 20.3-30.6 29.5 0 0 15.3-14.8 15.3-29.5z"/>
			<g id="&lt;Group&gt;">
				<g id="&lt;Group&gt;">
					<path id="&lt;Compound Path&gt;" fill-rule="evenodd" class="s13" d="m603.5 268.2c-0.3 1.5-0.9 2.8-1.7 4l1.4 1.8-3.1 3.1-1.7-1.5c-1.2 0.8-2.6 1.4-4 1.7l-0.3 2.3h-4.3l-0.3-2.3c-1.4-0.3-2.8-0.9-4-1.7l-1.7 1.5-3.1-3.1 1.4-1.8c-0.8-1.2-1.4-2.5-1.7-4l-2.2-0.2v-4.4l2.2-0.2c0.3-1.5 0.9-2.8 1.7-4l-1.4-1.8 3.1-3.1 1.7 1.5c1.2-0.8 2.6-1.4 4-1.7l0.3-2.3h4.3l0.3 2.3c1.4 0.3 2.8 0.9 4 1.7l1.7-1.5 3.1 3.1-1.4 1.8c0.8 1.2 1.4 2.5 1.7 4l2.2 0.2v4.4zm-5.6-2.4c0-3.3-2.6-5.9-5.9-5.9-3.3 0-5.9 2.6-5.9 5.9 0 3.3 2.6 5.9 5.9 5.9 3.3 0 5.9-2.6 5.9-5.9z"/>
					<path id="&lt;Compound Path&gt;" fill-rule="evenodd" class="s5" d="m621.7 280.5q-0.4 1.8-1.3 3.2l1.1 1.4-2.4 2.4-1.4-1.1c-0.9 0.6-2 1-3.1 1.3l-0.2 1.7h-3.4l-0.2-1.7q-1.7-0.4-3.2-1.3l-1.3 1.1-2.5-2.4 1.2-1.4q-1-1.4-1.4-3.2l-1.7-0.1v-3.5l1.7-0.1q0.4-1.8 1.4-3.2l-1.2-1.4 2.5-2.4 1.3 1.1q1.5-0.9 3.2-1.3l0.2-1.8h3.4l0.2 1.8c1.1 0.2 2.2 0.7 3.1 1.3l1.4-1.1 2.4 2.4-1.1 1.4q0.9 1.4 1.3 3.2l1.8 0.1v3.5zm-4.4-1.9c0-2.6-2.1-4.7-4.7-4.7-2.5 0-4.6 2.1-4.6 4.7 0 2.5 2.1 4.6 4.6 4.6 2.6 0 4.7-2.1 4.7-4.6z"/>
					<path id="&lt;Compound Path&gt;" fill-rule="evenodd" class="s6" d="m604.2 290.2q-0.3 1.5-1.1 2.7l1 1.1-2 2.1-1.2-1q-1.2 0.8-2.7 1.1l-0.1 1.5h-2.9l-0.1-1.5q-1.5-0.3-2.7-1.1l-1.1 1-2.1-2.1 1-1.1q-0.8-1.2-1.1-2.7l-1.5-0.1v-2.9l1.5-0.1q0.3-1.5 1.1-2.7l-1-1.1 2.1-2.1 1.1 1q1.2-0.8 2.7-1.1l0.1-1.5h2.9l0.1 1.5q1.5 0.3 2.7 1.1l1.2-1 2 2.1-1 1.1q0.8 1.2 1.1 2.7l1.5 0.1v2.9zm-3.7-1.6c0-2.1-1.7-3.9-3.9-3.9-2.1 0-3.9 1.8-3.9 3.9 0 2.2 1.8 3.9 3.9 3.9 2.2 0 3.9-1.7 3.9-3.9z"/>
				</g>
			</g>
		</g>
	</g>
	<g id="Character">
		<g id="&lt;Group&gt;">
			<g id="&lt;Group&gt; 38 ">
				<path id="&lt;Path&gt;" class="s14" d="m588.1 816.4l-15.9-2.2-2.2-37.9 15.9 2.2z"/>
				<path id="&lt;Path&gt;" class="s7" d="m585.9 778.5l-15.9-2.1 1.2 21.6 15.9 1.4z"/>
				<path id="&lt;Path&gt;" class="s4" d="m571 812.3l18-1.1c0.6-0.1 1.2 0.4 1.2 1q0 0 0 0l1.8 14.2c0.1 1.6-1.1 2.9-2.6 3-6.3 0.3-9.3 0.1-17.2 0.6-4.9 0.2-14.5 1.3-21.2 0.6-6.7-0.6-5.9-7.2-3-7.6 6.9-0.7 16-5.8 20.3-9.6 0.7-0.7 1.7-1.1 2.7-1.1z"/>
				<g id="&lt;Group&gt;">
					<path id="&lt;Compound Path&gt;" fill-rule="evenodd" class="s1" d="m570.6 814.3c0 0-0.3 0-0.3 0-0.1 0.1-0.4 0.1-0.4 0.1-0.1 0.1-0.1 0.1-0.1 0.2q-0.1 0-0.1-0.1-2.1 0.7-4.2 0.9c-1.1 0.2-2.2 0-3.1-0.6-0.6-0.5-0.8-1.3-0.6-2.1 0.1-0.5 0.4-0.9 0.8-1.1 1.1-0.5 2.9 0.1 4.5 0.8-1-1.2-1.7-2.7-1.6-3.7 0.1-0.6 0.7-1.1 1.4-1.2 0.5-0.1 1.3 0.1 1.8 0.5 1.6 1.4 1.9 5.9 1.9 6.2q0 0 0 0 0 0 0 0 0 0 0 0.1zm-1.7-1q0.2 0.1 0.3 0.2c-0.1-1.5-0.3-4.1-1.4-4.9-0.2-0.2-0.5-0.3-0.8-0.3h-0.2c-0.5 0.1-0.6 0.4-0.6 0.6-0.1 1.1 1.3 3.2 2.7 4.4zm-0.3 0.8c-1.9-1-4.6-2.2-5.7-1.7-0.2 0.1-0.3 0.3-0.4 0.5-0.1 0.5 0.1 1 0.4 1.3 0.8 0.7 2.9 0.7 5.7-0.1z"/>
				</g>
				<path id="&lt;Path&gt;" class="s4" d="m587.5 593.8l3.9-24.4 89.3-5.3c0 0 9.5 50.6 2.2 64.1-13 24.1-83.2 12-103.8 14.3 12.3 50.3 11.1 148.4 11.1 148.4l-29.4 2.2c0 0-22.5-105.7-27.1-156-3.1-33.9 25-33 53.8-43.3z"/>
				<path id="&lt;Path&gt;" class="s7" d="m587.5 593.8l3.9-24.4 89.3-5.3c0 0 9.5 50.6 2.2 64.1-13 24.1-83.2 12-103.8 14.3 12.3 50.3 11.1 148.4 11.1 148.4l-29.4 2.2c0 0-22.5-105.7-27.1-156-3.1-33.9 25-33 53.8-43.3z"/>
				<g id="&lt;Group&gt;">
					<path id="&lt;Path&gt;" class="s15" d="m522.1 387.4c0.4 3.8-1.2 7-3.5 7.3-2.4 0.2-4.7-2.6-5.1-6.3-0.4-3.8 1.2-7.1 3.6-7.3 2.4-0.3 4.6 2.5 5 6.3z"/>
					<path id="&lt;Path&gt;" class="s16" d="m522.2 406.7q0.6 1.3 1.2 2.5c2.7 4.8 6.7 8.4 11.2 10.6q1.8 0.9 3.7 1.5c6.6 2.1 14 1.5 20.1-2.5 2.5-1.6 4.8-3.8 6.7-6.5 7.6-10.9 5.6-21.6 3.5-40-0.3-4-1.6-7.8-3.8-11.2-7.4-11.8-23-15.3-34.8-7.9-16.7 10.3-14.5 37.8-7.8 53.5z"/>
					<path id="&lt;Path&gt;" class="s7" d="m534.6 419.8q1.8 0.9 3.7 1.5c6.6 2.1 14 1.5 20.1-2.5-1.9-3.3-4.3-5.6-4.3-5.6 0 0-11.2 0.1-19.5 6.6z"/>
					<path id="&lt;Path&gt;" class="s16" d="m582.8 424.7c-3.2 11.9-23.5 21.4-23.5 21.4 0 0-13.8 4.4-13.7-0.9 6.2-5.6 7.4-10.9 6.1-15.9-0.7-2.9-2.3-5.7-4.4-8.3-1-1.4-2.2-2.8-3.4-4.1l12.1-32c4.3 13.2 14 36.4 26.8 39.8z"/>
					<path id="&lt;Path&gt;" class="s4" d="m524.8 366.5c0 0-5.2 17.4 12.6 29.8 0 0 7.5 16.1 11.7 18.1 4.2 2 13.6 0.8 16.8 0 3.2-0.8 19.6-14.5 14.9-46.5-4.8-32.1-31.7-22-31.7-22z"/>
					<path id="&lt;Path&gt;" class="s16" d="m539.9 388c-0.5 4.2-2.1 7.5-4.7 9.2-3.5 2.2-6.8-2.7-7.2-8.2-0.3-5 1.1-12.2 5.2-12 4.1 0.3 7.1 5.9 6.7 11z"/>
					<path id="&lt;Path&gt;" class="s4" d="m560.2 344.5c0 0-19.8-5.4-35.3 2.7 0 0 3.1-2 2.2-4.5-1-2.5-8 6.6-8 6.6 0 0 2.4-8.7 1-9.5-1.5-0.7-10.6 12.8-6 19.4 0 0-8.8-6-7.2-1.3 1.6 4.8 1.6 12.8 21.9 8.8 20.3-3.9 31.4-22.2 31.4-22.2z"/>
					<path id="&lt;Path&gt;" class="s15" d="m513.5 388.4l14.5-6.1"/>
				</g>
				<g id="&lt;Group&gt;">
					<path id="&lt;Path&gt;" class="s1" d="m543.3 431.8c0 0 13.4-16.6 34.8-16.3l13 10.9z"/>
					<path id="&lt;Path&gt;" class="s8" d="m543.3 431.8c0 0 13.4-16.6 34.8-16.3l13 10.9z"/>
				</g>
				<path id="&lt;Path&gt;" class="s16" d="m462.5 500.3l-14.5-6.7c0 0-12.1-2.2-17.1-1.1-5 1.1-16.1 16.2-15.8 18 0.2 1.9 19.2 6.4 19.6 6.4 0.4 0 8.6-4.7 8.6-4.7l13.4 4.7z"/>
				<path id="&lt;Path&gt;" class="s1" d="m593.6 792.3l-35.2 2.3-3.1-15.1 38.8-1.8z"/>
				<path id="&lt;Path&gt;" class="s10" d="m593.6 792.3l-35.2 2.3-3.1-15.1 38.8-1.8z"/>
				<path id="&lt;Path&gt;" class="s14" d="m551.4 816.3l-16.1 1.1-10-36.5 16-1.2z"/>
				<g id="&lt;Group&gt;">
					<path id="&lt;Compound Path&gt;" fill-rule="evenodd" class="s1" d="m533.1 818.1c0 0.1 0 0.1 0 0.2q-0.1 0-0.2 0-1.9 1-3.9 1.7c-1 0.4-2.1 0.4-3.1 0-0.7-0.4-1.1-1.1-1-1.9-0.1-0.5 0.1-0.9 0.5-1.2 0.9-0.7 2.8-0.5 4.5-0.1-1.2-1-2.3-2.3-2.4-3.3 0-0.7 0.4-1.3 1-1.5q0.8-0.3 1.6 0.1c2 1.1 2.7 5.6 2.8 5.8 0 0-0.3 0-0.3 0q0 0 0 0c0 0 0.3 0 0.3 0 0 0.1 0.3 0.1 0.3 0.1q0 0.1-0.1 0.1zm-1.2-0.8q0.2 0 0.4 0.1c-0.4-1.5-1.2-3.9-2.4-4.6-0.2-0.1-0.6-0.2-0.8-0.1l-0.2 0.1c-0.5 0.2-0.6 0.5-0.6 0.7 0.2 1.1 2 2.9 3.6 3.8zm-0.1 0.8c-2.1-0.7-5-1.2-5.9-0.6-0.2 0.2-0.3 0.4-0.3 0.7 0 0.4 0.2 0.9 0.6 1.2 1 0.5 3 0 5.6-1.3z"/>
				</g>
				<path id="&lt;Path&gt;" class="s7" d="m541.3 779.7l-16 1.2 5.7 20.9 15.9-2z"/>
				<path id="&lt;Path&gt;" class="s4" d="m519.8 799.2l28.3-8.3c0 0-16.9-95.2-34-128.2q2-0.6 5.1-1.5c3.8-1.2 8.8-2.6 14.7-4.2 41-11.4 124.2-32.8 124.2-32.8l-38-35.4c0 0-151.3 23.1-154.5 62.9-1.5 19.2 54.2 147.5 54.2 147.5z"/>
				<path id="&lt;Path&gt;" class="s1" d="m551.7 791.5l-34 9.6-6.1-14.1 37.5-9.8z"/>
				<path id="&lt;Path&gt;" class="s10" d="m551.7 791.5l-34 9.6-6.1-14.1 37.5-9.8z"/>
				<path id="&lt;Path&gt;" class="s4" d="m533.8 815.8l17.3-4.8c0.6-0.2 1.3 0.1 1.5 0.7q0 0 0 0l4.7 13.5c0.4 1.5-0.5 3.1-2 3.5-6.1 1.6-9.1 2.1-16.7 4.1-4.7 1.3-13.9 4.3-20.6 5.1-6.7 0.8-7.2-5.9-4.5-6.8 6.6-2.2 14.4-9 17.8-13.7 0.6-0.8 1.5-1.3 2.5-1.6z"/>
				<g id="&lt;Group&gt;">
					<path id="&lt;Path&gt;" class="s1" d="m522.6 447.9c0 0 25.3-28.3 59.1-25.4 33.7 2.9 67.6 29 84.4 70 16.8 41 21.9 103 21.9 103 0 0-54.7 15.7-110.2 1.4 0 0-14.4-73.5-55.2-149z"/>
					<path id="&lt;Path&gt;" class="s5" d="m522.6 447.9c0 0 25.3-28.3 59.1-25.4 33.7 2.9 67.6 29 84.4 70 16.8 41 21.9 103 21.9 103 0 0-54.7 15.7-110.2 1.4 0 0-14.4-73.5-55.2-149z"/>
				</g>
				<g id="&lt;Group&gt;">
					<path id="&lt;Path&gt;" class="s1" d="m522.6 447.9c-8.5 8.9-32.9 49.5-39.9 51-7.1 1.6-17-4.7-24.9-2.4-7.9 2.4-16 9.6-14.2 14.2 1.8 4.7 20.4 17 43.5 17.6 19.7 0.6 61.3-48.5 61.3-48.5 0-19-25.8-31.9-25.8-31.9z"/>
					<path id="&lt;Path&gt;" class="s8" d="m522.6 447.9c-8.5 8.9-32.9 49.5-39.9 51-7.1 1.6-17-4.7-24.9-2.4-7.9 2.4-16 9.6-14.2 14.2 1.8 4.7 20.4 17 43.5 17.6 19.7 0.6 61.3-48.5 61.3-48.5 0-19-25.8-31.9-25.8-31.9z"/>
				</g>
				<g id="&lt;Group&gt;">
					<path id="&lt;Path&gt;" class="s1" d="m686.1 609.1c-57.4 11.1-113.6-11.6-113.6-11.6 0 0-0.2-4.1-0.9-10.5-0.3-2.5-0.6-5.3-1.1-8.3q-0.6-4.1-1.5-8.6c-1.6-8-3.9-16.9-7.2-25.3-3.2-7.9-5.7-14.4-7.6-19.7q-0.4-1.1-0.8-2.2-1.2-3.5-2.1-6.3c-4.1-12.7-3.5-15.2-3.5-15.2 14.5 2.1 15.6-27.8-3.9-50.1-7.1-8.1-15.9-8.6-15.9-8.6 0 0-2-3.2 18.5-14.7 11-6.2 23.4-1.6 32.5-1.6 14.7 0 16.9-2.1 16.9-2.1 24-0.1 53 31.6 71.7 69.3q1.4 2.8 2.7 5.7 1.4 3 2.7 6c6.5 15.4 11.2 31.3 13.1 46.1q0.3 2.4 0.5 4.7 0.4 3.2 0.7 6.2 0.4 3.6 0.7 6.9c3.5 38.4-1.9 39.9-1.9 39.9z"/>
					<path id="&lt;Path&gt;" class="s2" d="m554.2 525.1l23.6 19.3-8.8 25.7c-1.6-8-3.9-16.9-7.2-25.3-3.2-7.9-5.7-14.4-7.6-19.7z"/>
					<path id="&lt;Path&gt;" class="s2" d="m591.1 505.4l34.4 38.8-7.1 33.4-40.6-33.2z"/>
					<path id="&lt;Path&gt;" class="s2" d="m635.4 497.7l31.9 36.3-9.2 46.8-32.6-36.6z"/>
					<path id="&lt;Path&gt;" class="s2" d="m686.6 556.1l-19.3-22.1 5.7-28.7c6.5 15.4 11.2 31.3 13.1 46.1q0.3 2.4 0.5 4.7z"/>
					<g id="&lt;Group&gt;" style="opacity: .3">
						<path id="&lt;Path&gt;" class="s3" d="m670.3 499.3l-6.1 25.1-31.1-33.4-9.9 44.2-34.7-41.3-12.8 44.2-22.3-15.2q-1.2-3.5-2.1-6.3l22.1 15.1 13.4-46.1 34.2 40.9 9.9-43.8 31.2 33.6 5.5-22.7q1.4 2.8 2.7 5.7z"/>
					</g>
					<g id="&lt;Group&gt;" style="opacity: .3">
						<path id="&lt;Path&gt;" class="s3" d="m688 569.2l-14.7-17.2-10 49.1-32.9-36.1-7.1 29.3-40.8-35.1-10.9 27.8c-0.3-2.5-0.6-5.3-1.1-8.3l10.3-26.2 40.1 34.5 7.4-30.2 32.6 35.8 10.1-49.4 16.3 19.1q0.4 3.6 0.7 6.9z"/>
					</g>
				</g>
			</g>
			<g id="&lt;Group&gt;">
				<path id="&lt;Path&gt;" class="s1" d="m542.5 634.9h159.9c5.5 0 10 4.5 10 10v13.4h-179.9v-13.4c0-5.5 4.5-10 10-10z"/>
				<path id="&lt;Path&gt;" class="s7" d="m542.5 634.9h159.9c5.5 0 10 4.5 10 10v13.4h-179.9v-13.4c0-5.5 4.5-10 10-10z"/>
				<path id="&lt;Path&gt;" class="s4" d="m706.5 791.4l-57.6-5.7v-81h-22.9v81l-57.8 5.7c-5.8 0.5-10.1 5.3-10.1 11.1v8.7h77.1 4.3 77.1v-8.7c0-5.8-4.4-10.6-10.1-11.1z"/>
				<path id="&lt;Path&gt;" class="s10" d="m706.5 791.4l-57.6-5.7v-81h-22.9v81l-57.8 5.7c-5.8 0.5-10.1 5.3-10.1 11.1v8.7h77.1 4.3 77.1v-8.7c0-5.8-4.4-10.6-10.1-11.1z"/>
				<path id="&lt;Path&gt;" class="s4" d="m579.1 821.9c0 8.3-6.7 14.9-14.9 14.9-8.3 0-15-6.6-15-14.9 0-8.2 6.7-14.9 15-14.9 8.2 0 14.9 6.7 14.9 14.9z"/>
				<path id="&lt;Path&gt;" class="s4" d="m695.6 821.9c0 8.3 6.7 14.9 14.9 14.9 8.3 0 15-6.6 15-14.9 0-8.2-6.7-14.9-15-14.9-8.2 0-14.9 6.7-14.9 14.9z"/>
				<path id="&lt;Path&gt;" class="s4" d="m644.5 722.1h-14.1c-4.6 0-8.3-3.7-8.3-8.3v-63.8h30.7v63.8c0 4.6-3.7 8.3-8.3 8.3z"/>
				<path id="&lt;Path&gt;" class="s2" d="m644.5 722.1h-14.1c-4.6 0-8.3-3.7-8.3-8.3v-63.8h30.7v63.8c0 4.6-3.7 8.3-8.3 8.3z"/>
				<path id="&lt;Path&gt;" class="s1" d="m603.3 650c0 0 28.6-91.4 33.5-224.7 0.6-15.9 13.7-28.5 29.6-28.5h53.2c16.3 0 29.6 13.2 29.7 29.5 0.2 48.5-3.2 147.5-30.5 227.9z"/>
				<path id="&lt;Path&gt;" class="s7" d="m603.3 650c0 0 28.6-91.4 33.5-224.7 0.6-15.9 13.7-28.5 29.6-28.5h53.2c16.3 0 29.6 13.2 29.7 29.5 0.2 48.5-3.2 147.5-30.5 227.9z"/>
				<g id="&lt;Group&gt;">
					<path id="&lt;Path&gt;" class="s4" d="m621.4 648.8c0 0 27.3-97.1 31.8-220 0.6-14.7 12.7-26.3 27.4-26.3h49c15.1 0 27.3 12.1 27.4 27.2 0.2 44.7-3 144.9-28.2 219.1z"/>
					<path id="&lt;Path&gt;" class="s2" d="m728.8 648.8h-107.4c0 0 27.3-97.1 31.8-220 0.6-14.7 12.7-26.3 27.4-26.3h49c15.1 0 27.3 12.1 27.4 27.2 0.2 44.7-3 144.9-28.2 219.1z"/>
					<path id="&lt;Path&gt;" class="s4" d="m642.5 578.2c0 0-58.3-11.7-114.6-6-56.2 5.7 26.5 79.2 26.5 79.2h11.6c0 0-43.8-46.6-41.4-58.2 2.5-11.6 112.9 3.7 112.9 3.7z"/>
					<path id="&lt;Path&gt;" class="s2" d="m642.5 578.2c0 0-58.3-11.7-114.6-6-56.2 5.7 26.5 79.2 26.5 79.2h11.6c0 0-43.8-46.6-41.4-58.2 2.5-11.6 112.9 3.7 112.9 3.7z"/>
					<path id="&lt;Path&gt;" class="s7" d="m728.8 648.8h-95.4c0 0 27.3-97.1 31.8-220 0.6-14.7 12.7-26.3 27.4-26.3h37c15.1 0 27.3 12.1 27.4 27.2 0.2 44.7-3 144.9-28.2 219.1z"/>
				</g>
				<g id="&lt;Group&gt;">
					<path id="&lt;Path&gt;" class="s4" d="m530.1 646.6h196.7c2.2 0 4 1.8 4 4v3.6c0 2.3-1.8 4.1-4 4.1h-196.7c-2.2 0-4-1.8-4-4.1v-3.6c0-2.2 1.8-4 4-4z"/>
					<path id="&lt;Path&gt;" class="s5" d="m530.1 646.6h196.7c2.2 0 4 1.8 4 4v3.6c0 2.3-1.8 4.1-4 4.1h-196.7c-2.2 0-4-1.8-4-4.1v-3.6c0-2.2 1.8-4 4-4z"/>
				</g>
			</g>
		</g>
	</g>
</svg>